<svg width="845" height="235" viewBox="0 0 845 235" fill="none" xmlns="http://www.w3.org/2000/svg">
<path d="M547.152 1.12271C534.375 3.79565 524.485 8.98116 516.092 17.3742C505.721 27.7452 501.07 38.8112 500.536 54.1539C499.894 72.8111 504.385 84.7859 516.734 96.921C526.41 106.437 534.91 112.478 558.966 126.911C591.416 146.424 597.136 150.861 602.696 161.018C610.661 175.506 610.768 191.811 602.963 203.411C598.098 210.735 591.362 215.867 582.862 218.861C578.746 220.251 577.249 220.518 570.834 220.732C551.535 221.373 535.872 214.905 521.973 200.471C512.083 190.207 505.026 178.66 499.841 164.279L498.611 160.965H494.334H490.058L490.325 162.675C490.485 163.638 492.891 180.263 495.617 199.616L500.642 234.792L504.598 234.631L508.554 234.471L509.303 231.584C510.265 227.735 512.083 225.436 515.076 224.26C517.375 223.405 517.803 223.405 521.973 224.207C524.432 224.688 531.435 226.505 537.583 228.27C561.265 235.005 571.369 235.968 588.315 233.134C619.535 227.842 642.255 203.999 643.485 175.024C644.34 155.726 638.673 141.666 624.346 127.232C617.397 120.283 611.089 116.113 568.161 89.9714C546.457 76.767 535.23 65.8614 531.328 54.2074C530.366 51.2137 530.205 49.8772 530.419 44.4779C530.74 37.0471 531.916 33.0377 535.498 27.6918C539.667 21.4371 546.243 17.1604 554.85 14.9686C558.806 13.9528 560.41 13.8459 567.413 14.1132C576.02 14.3805 580.724 15.3962 587.727 18.4968C604.62 25.9811 620.711 46.9904 626.324 68.8551L627.287 72.7576H631.724H636.161V71.1539C636.161 69.4966 630.013 6.25476 629.478 2.2988L629.158 0.0535278H625.255H621.353L620.07 2.77992C618.412 6.41513 615.365 9.4623 612.692 10.2642C609.912 11.1195 607.828 10.6384 593.928 6.14784C578.425 1.17616 574.843 0.534653 562.387 0.267365C553.674 0.106979 551.161 0.267365 547.152 1.12271Z" fill="white"/>
<path d="M749.28 0.908798C739.924 2.61949 730.141 6.84274 722.657 12.5094C712.66 20.0471 705.283 31.5942 702.61 43.9432C701.327 49.9306 701.274 63.7765 702.557 69.55C705.016 80.8298 709.72 89.0625 718.274 97.3486C728.11 106.864 736.022 112.424 760.72 127.286C786.808 142.949 795.254 148.936 799.905 154.924C803.434 159.575 805.358 163.263 807.55 169.785C809.207 174.704 809.528 176.628 809.795 181.6C810.276 193.2 807.176 201.273 798.996 209.345C790.978 217.31 784.028 220.251 772.107 220.678C747.783 221.641 728.11 210.575 712.34 187.106C708.811 181.921 703.679 171.71 701.434 165.509L699.884 161.232L695.5 161.072L691.116 160.911L691.437 162.408C691.598 163.21 693.896 179.301 696.569 198.119C699.242 216.936 701.541 232.867 701.648 233.508C701.915 234.631 702.236 234.738 705.871 234.738H709.774L710.148 232.493C710.629 229.499 712.447 226.345 714.478 225.115C718.22 222.817 720.84 223.137 739.016 228.376C752.273 232.118 758.207 233.402 766.707 234.257C777.185 235.326 791.94 233.562 801.616 230.087C823.641 222.175 839.946 203.999 843.902 183.097C845.131 176.575 844.704 162.622 843.1 156.26C840.962 147.653 837.22 140.704 830.377 132.525C822.037 122.474 817.279 119.106 778.094 95.3707C759.116 83.8235 752.166 79.0122 745.484 72.6506C735.648 63.3488 731.318 55.223 731.318 46.0281C731.318 36.5659 734.097 29.6697 740.299 23.6288C747.355 16.7326 754.786 13.9528 766.387 13.9528C782.317 13.9528 794.399 19.0848 805.893 30.7923C815.943 41.003 822.893 53.0312 827.009 67.4117L828.506 72.4902L833.05 72.6506L837.647 72.811L837.326 69.9777C837.166 68.4274 835.562 52.1224 833.745 33.7326L830.484 0.320755L826.421 0.16037L822.358 0L821.556 2.03143C819.257 7.69807 814.66 11.1729 810.223 10.5849C808.993 10.371 803.487 8.82071 797.874 7.00311C785.792 3.15407 781.409 1.97798 774.619 0.855347C768.258 -0.160385 755.053 -0.106918 749.28 0.908798Z" fill="white"/>
<path d="M0.534589 8.019V11.1196L6.14777 11.4938C19.0848 12.3492 27.3175 16.3051 30.8458 23.4686L32.3426 26.5158V117.129V207.741L30.8458 210.789C27.3175 218.005 18.871 222.068 5.77356 222.817L0 223.138V226.559V229.927H40.6288H81.2575V226.452V222.977H77.6223C72.2764 222.977 64.4714 221.48 59.9809 219.663C55.2765 217.685 51.8017 214.531 49.8237 210.254L48.3803 207.207L48.2734 126.217L48.113 45.2264L64.5783 81.0438C73.6129 100.717 92.6977 142.308 106.918 173.421L132.845 229.927L135.786 229.82L138.726 229.66L181.76 134.342L224.795 39.0251L224.955 122.956C225.062 206.245 225.062 206.886 223.993 209.826C221.053 217.631 212.98 222.068 200.097 222.817L194.59 223.138V226.559V229.927H242.436H290.282V226.452V222.977H286.7C284.669 222.977 280.873 222.496 278.254 221.961C269.967 220.251 264.835 216.883 262.109 211.323L260.612 208.276L260.238 179.141C259.971 163.103 259.864 122.207 259.971 88.2608L260.077 26.5158L261.842 22.934C265.263 15.9309 272.426 12.3492 284.829 11.4938L289.747 11.1196V7.96553V4.86491L255.694 4.97183L221.641 5.13222L215.974 17.9623C212.873 25.0189 196.034 63.3489 178.553 103.069C161.072 142.842 146.638 175.185 146.424 174.971C146.21 174.757 128.515 136.427 107.132 89.7576L68.1601 4.86491H34.3741H0.534589V8.019Z" fill="white"/>
<path d="M342.137 8.019V11.1196L347.643 11.4938C360.847 12.3492 369.454 16.3051 372.929 23.1479C373.678 24.5912 374.479 27.5315 374.8 29.8837C375.121 32.5566 375.281 63.6697 375.174 120.336C375.014 218.219 375.442 209.131 370.47 214.584C366.033 219.449 358.388 222.229 347.91 222.817L342.137 223.138V226.505V229.927H392.656H443.174V226.559V223.138L437.454 222.817C424.303 222.068 415.857 218.005 412.328 210.789L410.832 207.741L410.671 118.198C410.511 19.1919 410.297 25.607 413.986 20.7957C416.177 17.9089 419.92 15.4498 424.25 13.9529C427.885 12.6699 436.278 11.28 440.394 11.28H443.174V8.07245V4.86491H392.656H342.137V8.019Z" fill="white"/>
</svg>
